<svg data-v-423bf9ae="" xmlns="http://www.w3.org/2000/svg" viewBox="0 0 606.4089012517385 60" class="font"><!----><!----><!----><g data-v-423bf9ae="" id="05936ff1-ec32-4aba-a5c9-3fff44773ac2" fill="white" transform="matrix(4.2726006507873535,0,0,4.2726006507873535,-1.8859224319458008,-11.23226547241211)"><path d="M0.44 13.78L2.37 2.80L5.27 2.80L5.27 2.80Q6.20 2.80 6.86 3.12L6.86 3.12L6.86 3.12Q7.52 3.45 7.87 4.06L7.87 4.06L7.87 4.06Q8.22 4.67 8.22 5.52L8.22 5.52L8.22 5.52Q8.22 5.93 8.13 6.38L8.13 6.38L8.13 6.38Q7.95 7.42 7.40 8.15L7.40 8.15L7.40 8.15Q6.86 8.89 6.00 9.27L6.00 9.27L6.00 9.27Q5.14 9.65 4.03 9.65L4.03 9.65L2.88 9.65L2.16 13.78L0.44 13.78ZM3.13 8.29L4.12 8.29L4.12 8.29Q5.10 8.29 5.70 7.74L5.70 7.74L5.70 7.74Q6.31 7.19 6.49 6.17L6.49 6.17L6.49 6.17Q6.54 5.85 6.54 5.62L6.54 5.62L6.54 5.62Q6.54 4.94 6.16 4.58L6.16 4.58L6.16 4.58Q5.78 4.22 5.01 4.22L5.01 4.22L3.84 4.22L3.13 8.29ZM8.08 13.78L10.01 2.80L11.68 2.80L9.74 13.78L8.08 13.78ZM15.31 5.48L15.31 5.48Q16.47 5.48 17.14 6.01L17.14 6.01L17.14 6.01Q17.81 6.54 17.81 7.56L17.81 7.56L17.81 7.56Q17.81 7.88 17.76 8.18L17.76 8.18L16.77 13.78L15.35 13.78L15.49 12.56L15.39 12.56L15.39 12.56Q15.11 13.04 14.72 13.36L14.72 13.36L14.72 13.36Q14.33 13.67 13.92 13.82L13.92 13.82L13.92 13.82Q13.51 13.96 13.15 13.96L13.15 13.96L13.15 13.96Q12.58 13.96 12.16 13.75L12.16 13.75L12.16 13.75Q11.74 13.54 11.52 13.16L11.52 13.16L11.52 13.16Q11.29 12.77 11.29 12.26L11.29 12.26L11.29 12.26Q11.29 12.04 11.33 11.81L11.33 11.81L11.33 11.81Q11.46 11.06 11.86 10.51L11.86 10.51L11.86 10.51Q12.26 9.97 12.94 9.53L12.94 9.53L12.94 9.53Q14.19 8.76 16.15 8.48L16.15 8.48L16.21 8.17L16.21 8.17Q16.28 7.83 16.28 7.59L16.28 7.59L16.28 7.59Q16.28 7.15 16.04 6.96L16.04 6.96L16.04 6.96Q15.80 6.76 15.30 6.76L15.30 6.76L15.30 6.76Q14.11 6.76 13.38 8.02L13.38 8.02L12.22 7.31L12.22 7.31Q12.74 6.37 13.53 5.92L13.53 5.92L13.53 5.92Q14.31 5.48 15.31 5.48L15.31 5.48ZM13.65 12.67L13.65 12.67Q14.23 12.67 14.73 12.28L14.73 12.28L14.73 12.28Q15.24 11.90 15.64 11.30L15.64 11.30L15.93 9.67L15.93 9.67Q15.36 9.74 14.85 9.92L14.85 9.92L14.85 9.92Q14.33 10.10 13.95 10.37L13.95 10.37L13.95 10.37Q13.54 10.62 13.28 10.98L13.28 10.98L13.28 10.98Q13.02 11.34 12.95 11.76L12.95 11.76L12.95 11.76Q12.93 11.87 12.93 11.97L12.93 11.97L12.93 11.97Q12.93 12.30 13.13 12.48L13.13 12.48L13.13 12.48Q13.32 12.67 13.65 12.67L13.65 12.67ZM23.55 5.63L25.29 5.63L21.76 13.84L21.76 13.84Q21.10 15.35 20.36 16.01L20.36 16.01L20.36 16.01Q19.63 16.67 18.74 16.67L18.74 16.67L18.74 16.67Q18.35 16.67 18.06 16.61L18.06 16.61L18.06 16.61Q17.77 16.55 17.47 16.43L17.47 16.43L17.91 15.35L17.91 15.35Q18.06 15.41 18.21 15.43L18.21 15.43L18.21 15.43Q18.37 15.44 18.61 15.44L18.61 15.44L18.61 15.44Q19.20 15.44 19.60 15.01L19.60 15.01L19.60 15.01Q20.01 14.57 20.30 13.78L20.30 13.78L19.69 13.78L19.04 5.63L20.77 5.63L20.89 9.65L20.95 12.50L22.00 9.64L23.55 5.63ZM25.18 13.78L25.53 11.76L27.58 11.76L27.22 13.78L25.18 13.78ZM30.99 13.78L32.67 4.29L30.28 4.29L30.54 2.80L37.02 2.80L36.76 4.29L34.38 4.29L32.70 13.78L30.99 13.78ZM36.14 13.78L38.08 2.80L39.71 2.80L38.97 6.85L39.05 6.85L39.05 6.85Q39.46 6.18 40.00 5.83L40.00 5.83L40.00 5.83Q40.54 5.48 41.19 5.48L41.19 5.48L41.19 5.48Q41.77 5.48 42.20 5.73L42.20 5.73L42.20 5.73Q42.63 5.99 42.86 6.46L42.86 6.46L42.86 6.46Q43.09 6.93 43.09 7.57L43.09 7.57L43.09 7.57Q43.09 7.93 43.02 8.29L43.02 8.29L42.05 13.78L40.40 13.78L41.35 8.40L41.35 8.40Q41.41 8.05 41.41 7.79L41.41 7.79L41.41 7.79Q41.41 7.30 41.20 7.10L41.20 7.10L41.20 7.10Q41.00 6.89 40.58 6.89L40.58 6.89L40.58 6.89Q40.12 6.89 39.72 7.16L39.72 7.16L39.72 7.16Q39.31 7.42 39.03 7.91L39.03 7.91L39.03 7.91Q38.75 8.39 38.64 9.00L38.64 9.00L37.80 13.78L36.14 13.78ZM47.46 5.48L47.46 5.48Q48.62 5.48 49.29 6.01L49.29 6.01L49.29 6.01Q49.96 6.54 49.96 7.56L49.96 7.56L49.96 7.56Q49.96 7.88 49.91 8.18L49.91 8.18L48.92 13.78L47.50 13.78L47.64 12.56L47.54 12.56L47.54 12.56Q47.26 13.04 46.87 13.36L46.87 13.36L46.87 13.36Q46.48 13.67 46.07 13.82L46.07 13.82L46.07 13.82Q45.66 13.96 45.30 13.96L45.30 13.96L45.30 13.96Q44.73 13.96 44.31 13.75L44.31 13.75L44.31 13.75Q43.89 13.54 43.66 13.16L43.66 13.16L43.66 13.16Q43.44 12.77 43.44 12.26L43.44 12.26L43.44 12.26Q43.44 12.04 43.48 11.81L43.48 11.81L43.48 11.81Q43.61 11.06 44.01 10.51L44.01 10.51L44.01 10.51Q44.41 9.97 45.09 9.53L45.09 9.53L45.09 9.53Q46.34 8.76 48.30 8.48L48.30 8.48L48.36 8.17L48.36 8.17Q48.43 7.83 48.43 7.59L48.43 7.59L48.43 7.59Q48.43 7.15 48.19 6.96L48.19 6.96L48.19 6.96Q47.95 6.76 47.45 6.76L47.45 6.76L47.45 6.76Q46.26 6.76 45.53 8.02L45.53 8.02L44.37 7.31L44.37 7.31Q44.89 6.37 45.68 5.92L45.68 5.92L45.68 5.92Q46.46 5.48 47.46 5.48L47.46 5.48ZM45.80 12.67L45.80 12.67Q46.38 12.67 46.88 12.28L46.88 12.28L46.88 12.28Q47.39 11.90 47.79 11.30L47.79 11.30L48.08 9.67L48.08 9.67Q47.51 9.74 47.00 9.92L47.00 9.92L47.00 9.92Q46.48 10.10 46.09 10.37L46.09 10.37L46.09 10.37Q45.69 10.62 45.43 10.98L45.43 10.98L45.43 10.98Q45.17 11.34 45.10 11.76L45.10 11.76L45.10 11.76Q45.08 11.87 45.08 11.97L45.08 11.97L45.08 11.97Q45.08 12.30 45.27 12.48L45.27 12.48L45.27 12.48Q45.47 12.67 45.80 12.67L45.80 12.67ZM52.72 13.78L52.72 13.78Q51.88 13.78 51.49 13.39L51.49 13.39L51.49 13.39Q51.09 13.00 51.09 12.22L51.09 12.22L51.09 12.22Q51.09 11.83 51.17 11.43L51.17 11.43L51.99 6.79L51.06 6.79L51.27 5.63L52.27 5.63L52.92 3.76L54.17 3.76L53.84 5.63L55.43 5.63L55.23 6.79L53.63 6.79L52.87 11.16L52.87 11.16Q52.79 11.60 52.79 11.85L52.79 11.85L52.79 11.85Q52.79 12.20 52.96 12.33L52.96 12.33L52.96 12.33Q53.13 12.46 53.54 12.46L53.54 12.46L54.14 12.46L53.91 13.78L52.72 13.78ZM60.14 9.28L60.37 7.97L63.73 7.97L62.71 13.78L61.35 13.78L61.60 12.07L61.60 12.07Q61.37 12.60 60.94 13.03L60.94 13.03L60.94 13.03Q60.52 13.45 59.96 13.70L59.96 13.70L59.96 13.70Q59.40 13.94 58.79 13.94L58.79 13.94L58.79 13.94Q57.18 13.94 56.41 12.91L56.41 12.91L56.41 12.91Q55.64 11.88 55.64 10.09L55.64 10.09L55.64 10.09Q55.64 9.17 55.83 8.13L55.83 8.13L55.83 8.13Q56.11 6.54 56.72 5.30L56.72 5.30L56.72 5.30Q57.34 4.07 58.35 3.35L58.35 3.35L58.35 3.35Q59.36 2.63 60.76 2.63L60.76 2.63L60.76 2.63Q62.44 2.63 63.25 3.46L63.25 3.46L63.25 3.46Q64.05 4.29 64.12 5.74L64.12 5.74L62.61 6.03L62.61 6.03Q62.57 5.37 62.38 4.95L62.38 4.95L62.38 4.95Q62.20 4.53 61.81 4.31L61.81 4.31L61.81 4.31Q61.42 4.10 60.76 4.10L60.76 4.10L60.76 4.10Q58.24 4.10 57.48 8.35L57.48 8.35L57.48 8.35Q57.31 9.29 57.31 10.06L57.31 10.06L57.31 10.06Q57.31 12.41 59.03 12.41L59.03 12.41L59.03 12.41Q59.85 12.41 60.50 11.88L60.50 11.88L60.50 11.88Q61.15 11.35 61.53 10.40L61.53 10.40L61.53 10.40Q61.76 9.91 61.89 9.28L61.89 9.28L60.14 9.28ZM66.59 13.94L66.59 13.94Q66.01 13.94 65.59 13.68L65.59 13.68L65.59 13.68Q65.17 13.43 64.94 12.95L64.94 12.95L64.94 12.95Q64.72 12.48 64.72 11.84L64.72 11.84L64.72 11.84Q64.72 11.48 64.78 11.12L64.78 11.12L65.75 5.63L67.40 5.63L66.45 11.07L66.45 11.07Q66.38 11.41 66.38 11.68L66.38 11.68L66.38 11.68Q66.38 12.58 67.18 12.58L67.18 12.58L67.18 12.58Q67.66 12.58 68.07 12.31L68.07 12.31L68.07 12.31Q68.48 12.04 68.76 11.57L68.76 11.57L68.76 11.57Q69.04 11.09 69.15 10.47L69.15 10.47L70 5.63L71.66 5.63L70.23 13.78L68.65 13.78L68.83 12.56L68.75 12.56L68.75 12.56Q68.33 13.25 67.80 13.59L67.80 13.59L67.80 13.59Q67.27 13.94 66.59 13.94L66.59 13.94ZM77.16 5.63L78.91 5.63L75.37 13.84L75.37 13.84Q74.72 15.35 73.98 16.01L73.98 16.01L73.98 16.01Q73.24 16.67 72.35 16.67L72.35 16.67L72.35 16.67Q71.97 16.67 71.68 16.61L71.68 16.61L71.68 16.61Q71.39 16.55 71.08 16.43L71.08 16.43L71.52 15.35L71.52 15.35Q71.67 15.41 71.83 15.43L71.83 15.43L71.83 15.43Q71.98 15.44 72.22 15.44L72.22 15.44L72.22 15.44Q72.81 15.44 73.22 15.01L73.22 15.01L73.22 15.01Q73.62 14.57 73.92 13.78L73.92 13.78L73.31 13.78L72.66 5.63L74.38 5.63L74.50 9.65L74.56 12.50L75.61 9.64L77.16 5.63ZM78.92 13.94L78.92 13.94Q78.69 13.94 78.34 13.89L78.34 13.89L78.34 13.89Q77.99 13.84 77.76 13.76L77.76 13.76L77.91 12.35L77.91 12.35Q78.15 12.43 78.33 12.46L78.33 12.46L78.33 12.46Q78.50 12.49 78.70 12.49L78.70 12.49L78.70 12.49Q79.45 12.49 79.90 12.00L79.90 12.00L79.90 12.00Q80.34 11.51 80.52 10.51L80.52 10.51L81.88 2.80L83.60 2.80L82.22 10.69L82.22 10.69Q81.92 12.37 81.12 13.15L81.12 13.15L81.12 13.15Q80.32 13.94 78.92 13.94L78.92 13.94ZM87.34 5.48L87.34 5.48Q88.50 5.48 89.18 6.01L89.18 6.01L89.18 6.01Q89.85 6.54 89.85 7.56L89.85 7.56L89.85 7.56Q89.85 7.88 89.80 8.18L89.80 8.18L88.81 13.78L87.38 13.78L87.53 12.56L87.42 12.56L87.42 12.56Q87.14 13.04 86.76 13.36L86.76 13.36L86.76 13.36Q86.37 13.67 85.96 13.82L85.96 13.82L85.96 13.82Q85.55 13.96 85.19 13.96L85.19 13.96L85.19 13.96Q84.62 13.96 84.19 13.75L84.19 13.75L84.19 13.75Q83.77 13.54 83.55 13.16L83.55 13.16L83.55 13.16Q83.33 12.77 83.33 12.26L83.33 12.26L83.33 12.26Q83.33 12.04 83.37 11.81L83.37 11.81L83.37 11.81Q83.50 11.06 83.90 10.51L83.90 10.51L83.90 10.51Q84.29 9.97 84.98 9.53L84.98 9.53L84.98 9.53Q86.23 8.76 88.18 8.48L88.18 8.48L88.25 8.17L88.25 8.17Q88.32 7.83 88.32 7.59L88.32 7.59L88.32 7.59Q88.32 7.15 88.08 6.96L88.08 6.96L88.08 6.96Q87.84 6.76 87.34 6.76L87.34 6.76L87.34 6.76Q86.15 6.76 85.42 8.02L85.42 8.02L84.26 7.31L84.26 7.31Q84.78 6.37 85.57 5.92L85.57 5.92L85.57 5.92Q86.35 5.48 87.34 5.48L87.34 5.48ZM85.69 12.67L85.69 12.67Q86.26 12.67 86.77 12.28L86.77 12.28L86.77 12.28Q87.27 11.90 87.68 11.30L87.68 11.30L87.96 9.67L87.96 9.67Q87.40 9.74 86.88 9.92L86.88 9.92L86.88 9.92Q86.37 10.10 85.98 10.37L85.98 10.37L85.98 10.37Q85.58 10.62 85.32 10.98L85.32 10.98L85.32 10.98Q85.05 11.34 84.98 11.76L84.98 11.76L84.98 11.76Q84.96 11.87 84.96 11.97L84.96 11.97L84.96 11.97Q84.96 12.30 85.16 12.48L85.16 12.48L85.16 12.48Q85.36 12.67 85.69 12.67L85.69 12.67ZM93.21 13.96L93.21 13.96Q91.88 13.96 91.24 13.12L91.24 13.12L91.24 13.12Q90.60 12.28 90.60 10.88L90.60 10.88L90.60 10.88Q90.60 10.29 90.72 9.61L90.72 9.61L90.72 9.61Q90.92 8.44 91.41 7.51L91.41 7.51L91.41 7.51Q91.89 6.58 92.67 6.03L92.67 6.03L92.67 6.03Q93.45 5.48 94.51 5.48L94.51 5.48L94.51 5.48Q95.72 5.48 96.32 6.11L96.32 6.11L96.32 6.11Q96.92 6.74 97.02 7.96L97.02 7.96L95.60 8.24L95.60 8.24Q95.61 7.49 95.36 7.13L95.36 7.13L95.36 7.13Q95.12 6.77 94.55 6.77L94.55 6.77L94.55 6.77Q93.64 6.77 93.10 7.65L93.10 7.65L93.10 7.65Q92.56 8.52 92.32 9.85L92.32 9.85L92.32 9.85Q92.20 10.54 92.20 11.07L92.20 11.07L92.20 11.07Q92.20 12.64 93.32 12.64L93.32 12.64L93.32 12.64Q93.95 12.64 94.39 12.23L94.39 12.23L94.39 12.23Q94.83 11.81 95.09 11.08L95.09 11.08L96.35 11.53L96.35 11.53Q95.86 12.78 95.11 13.37L95.11 13.37L95.11 13.37Q94.36 13.96 93.21 13.96L93.21 13.96ZM104.58 5.63L101.83 8.39L103.34 13.78L101.55 13.78L100.56 9.59L99.35 10.62L98.77 13.78L97.11 13.78L99.05 2.80L100.71 2.80L99.60 8.96L102.69 5.63L104.58 5.63ZM104.60 13.78L104.96 11.76L107.00 11.76L106.65 13.78L104.60 13.78ZM111.54 13.96L111.54 13.96Q110.21 13.96 109.57 13.12L109.57 13.12L109.57 13.12Q108.93 12.28 108.93 10.88L108.93 10.88L108.93 10.88Q108.93 10.29 109.05 9.61L109.05 9.61L109.05 9.61Q109.25 8.44 109.73 7.51L109.73 7.51L109.73 7.51Q110.22 6.58 111.00 6.03L111.00 6.03L111.00 6.03Q111.78 5.48 112.83 5.48L112.83 5.48L112.83 5.48Q114.05 5.48 114.65 6.11L114.65 6.11L114.65 6.11Q115.25 6.74 115.34 7.96L115.34 7.96L113.93 8.24L113.93 8.24Q113.93 7.49 113.69 7.13L113.69 7.13L113.69 7.13Q113.44 6.77 112.88 6.77L112.88 6.77L112.88 6.77Q111.97 6.77 111.43 7.65L111.43 7.65L111.43 7.65Q110.89 8.52 110.65 9.85L110.65 9.85L110.65 9.85Q110.52 10.54 110.52 11.07L110.52 11.07L110.52 11.07Q110.52 12.64 111.64 12.64L111.64 12.64L111.64 12.64Q112.28 12.64 112.72 12.23L112.72 12.23L112.72 12.23Q113.16 11.81 113.42 11.08L113.42 11.08L114.67 11.53L114.67 11.53Q114.19 12.78 113.44 13.37L113.44 13.37L113.44 13.37Q112.68 13.96 111.54 13.96L111.54 13.96ZM118.25 13.96L118.25 13.96Q116.97 13.96 116.26 13.21L116.26 13.21L116.26 13.21Q115.54 12.46 115.54 10.96L115.54 10.96L115.54 10.96Q115.54 10.34 115.67 9.62L115.67 9.62L115.67 9.62Q116.04 7.53 117.05 6.50L117.05 6.50L117.05 6.50Q118.06 5.48 119.54 5.48L119.54 5.48L119.54 5.48Q120.82 5.48 121.53 6.22L121.53 6.22L121.53 6.22Q122.25 6.97 122.25 8.47L122.25 8.47L122.25 8.47Q122.25 9.07 122.11 9.85L122.11 9.85L122.11 9.85Q121.75 11.92 120.73 12.94L120.73 12.94L120.73 12.94Q119.72 13.96 118.25 13.96L118.25 13.96ZM118.27 12.63L118.27 12.63Q119.12 12.63 119.70 11.92L119.70 11.92L119.70 11.92Q120.28 11.22 120.56 9.61L120.56 9.61L120.56 9.61Q120.69 8.87 120.69 8.33L120.69 8.33L120.69 8.33Q120.69 7.50 120.39 7.15L120.39 7.15L120.39 7.15Q120.09 6.79 119.50 6.79L119.50 6.79L119.50 6.79Q118.68 6.79 118.10 7.50L118.10 7.50L118.10 7.50Q117.53 8.20 117.24 9.84L117.24 9.84L117.24 9.84Q117.11 10.56 117.11 11.09L117.11 11.09L117.11 11.09Q117.11 11.92 117.40 12.27L117.40 12.27L117.40 12.27Q117.70 12.63 118.27 12.63L118.27 12.63ZM123.08 13.78L123.44 11.76L125.48 11.76L125.13 13.78L123.08 13.78ZM129.42 13.94L129.42 13.94Q128.84 13.94 128.42 13.68L128.42 13.68L128.42 13.68Q128.00 13.43 127.77 12.95L127.77 12.95L127.77 12.95Q127.54 12.48 127.54 11.84L127.54 11.84L127.54 11.84Q127.54 11.48 127.61 11.12L127.61 11.12L128.58 5.63L130.23 5.63L129.27 11.07L129.27 11.07Q129.21 11.41 129.21 11.68L129.21 11.68L129.21 11.68Q129.21 12.58 130.01 12.58L130.01 12.58L130.01 12.58Q130.49 12.58 130.90 12.31L130.90 12.31L130.90 12.31Q131.30 12.04 131.58 11.57L131.58 11.57L131.58 11.57Q131.87 11.09 131.97 10.47L131.97 10.47L132.83 5.63L134.49 5.63L133.05 13.78L131.48 13.78L131.66 12.56L131.58 12.56L131.58 12.56Q131.15 13.25 130.62 13.59L130.62 13.59L130.62 13.59Q130.09 13.94 129.42 13.94L129.42 13.94ZM142.37 5.63L139.62 8.39L141.13 13.78L139.34 13.78L138.35 9.59L137.14 10.62L136.56 13.78L134.90 13.78L136.83 2.80L138.50 2.80L137.39 8.96L140.48 5.63L142.37 5.63Z"></path></g><!----><!----></svg>