<svg data-v-423bf9ae="" xmlns="http://www.w3.org/2000/svg" viewBox="0 0 478.9151599443672 163" class="iconAbove"><!----><!----><!----><g data-v-423bf9ae="" id="b7760754-1df6-4fb5-b71b-6a4c55ead3c6" fill="black" transform="matrix(4.2726006507873535,0,0,4.2726006507873535,-4.656455993652344,91.76773834228516)"><path d="M1.80 13.78L3.48 4.29L1.09 4.29L1.35 2.80L7.83 2.80L7.57 4.29L5.19 4.29L3.51 13.78L1.80 13.78ZM6.95 13.78L8.89 2.80L10.52 2.80L9.78 6.85L9.86 6.85L9.86 6.85Q10.27 6.18 10.81 5.83L10.81 5.83L10.81 5.83Q11.35 5.48 12.00 5.48L12.00 5.48L12.00 5.48Q12.58 5.48 13.01 5.73L13.01 5.73L13.01 5.73Q13.44 5.99 13.67 6.46L13.67 6.46L13.67 6.46Q13.90 6.93 13.90 7.57L13.90 7.57L13.90 7.57Q13.90 7.93 13.83 8.29L13.83 8.29L12.87 13.78L11.21 13.78L12.16 8.40L12.16 8.40Q12.22 8.05 12.22 7.79L12.22 7.79L12.22 7.79Q12.22 7.30 12.01 7.10L12.01 7.10L12.01 7.10Q11.81 6.89 11.39 6.89L11.39 6.89L11.39 6.89Q10.93 6.89 10.53 7.16L10.53 7.16L10.53 7.16Q10.12 7.42 9.84 7.91L9.84 7.91L9.84 7.91Q9.56 8.39 9.45 9.00L9.45 9.00L8.61 13.78L6.95 13.78ZM18.27 5.48L18.27 5.48Q19.43 5.48 20.10 6.01L20.10 6.01L20.10 6.01Q20.77 6.54 20.77 7.56L20.77 7.56L20.77 7.56Q20.77 7.88 20.72 8.18L20.72 8.18L19.73 13.78L18.31 13.78L18.45 12.56L18.35 12.56L18.35 12.56Q18.07 13.04 17.68 13.36L17.68 13.36L17.68 13.36Q17.29 13.67 16.88 13.82L16.88 13.82L16.88 13.82Q16.47 13.96 16.11 13.96L16.11 13.96L16.11 13.96Q15.54 13.96 15.12 13.75L15.12 13.75L15.12 13.75Q14.70 13.54 14.48 13.16L14.48 13.16L14.48 13.16Q14.25 12.77 14.25 12.26L14.25 12.26L14.25 12.26Q14.25 12.04 14.29 11.81L14.29 11.81L14.29 11.81Q14.42 11.06 14.82 10.51L14.82 10.51L14.82 10.51Q15.22 9.97 15.90 9.53L15.90 9.53L15.90 9.53Q17.15 8.76 19.11 8.48L19.11 8.48L19.17 8.17L19.17 8.17Q19.24 7.83 19.24 7.59L19.24 7.59L19.24 7.59Q19.24 7.15 19.00 6.96L19.00 6.96L19.00 6.96Q18.76 6.76 18.26 6.76L18.26 6.76L18.26 6.76Q17.07 6.76 16.34 8.02L16.34 8.02L15.18 7.31L15.18 7.31Q15.70 6.37 16.49 5.92L16.49 5.92L16.49 5.92Q17.27 5.48 18.27 5.48L18.27 5.48ZM16.61 12.67L16.61 12.67Q17.19 12.67 17.69 12.28L17.69 12.28L17.69 12.28Q18.20 11.90 18.60 11.30L18.60 11.30L18.89 9.67L18.89 9.67Q18.32 9.74 17.81 9.92L17.81 9.92L17.81 9.92Q17.29 10.10 16.91 10.37L16.91 10.37L16.91 10.37Q16.50 10.62 16.24 10.98L16.24 10.98L16.24 10.98Q15.98 11.34 15.91 11.76L15.91 11.76L15.91 11.76Q15.89 11.87 15.89 11.97L15.89 11.97L15.89 11.97Q15.89 12.30 16.08 12.48L16.08 12.48L16.08 12.48Q16.28 12.67 16.61 12.67L16.61 12.67ZM23.53 13.78L23.53 13.78Q22.70 13.78 22.30 13.39L22.30 13.39L22.30 13.39Q21.90 13.00 21.90 12.22L21.90 12.22L21.90 12.22Q21.90 11.83 21.98 11.43L21.98 11.43L22.80 6.79L21.88 6.79L22.08 5.63L23.08 5.63L23.73 3.76L24.98 3.76L24.65 5.63L26.24 5.63L26.04 6.79L24.45 6.79L23.68 11.16L23.68 11.16Q23.60 11.60 23.60 11.85L23.60 11.85L23.60 11.85Q23.60 12.20 23.77 12.33L23.77 12.33L23.77 12.33Q23.94 12.46 24.35 12.46L24.35 12.46L24.95 12.46L24.72 13.78L23.53 13.78ZM30.95 9.28L31.18 7.97L34.54 7.97L33.52 13.78L32.16 13.78L32.41 12.07L32.41 12.07Q32.18 12.60 31.75 13.03L31.75 13.03L31.75 13.03Q31.33 13.45 30.77 13.70L30.77 13.70L30.77 13.70Q30.21 13.94 29.60 13.94L29.60 13.94L29.60 13.94Q27.99 13.94 27.22 12.91L27.22 12.91L27.22 12.91Q26.46 11.88 26.46 10.09L26.46 10.09L26.46 10.09Q26.46 9.17 26.64 8.13L26.64 8.13L26.64 8.13Q26.92 6.54 27.54 5.30L27.54 5.30L27.54 5.30Q28.15 4.07 29.16 3.35L29.16 3.35L29.16 3.35Q30.17 2.63 31.57 2.63L31.57 2.63L31.57 2.63Q33.25 2.63 34.06 3.46L34.06 3.46L34.06 3.46Q34.86 4.29 34.93 5.74L34.93 5.74L33.42 6.03L33.42 6.03Q33.38 5.37 33.20 4.95L33.20 4.95L33.20 4.95Q33.01 4.53 32.62 4.31L32.62 4.31L32.62 4.31Q32.23 4.10 31.58 4.10L31.58 4.10L31.58 4.10Q29.05 4.10 28.29 8.35L28.29 8.35L28.29 8.35Q28.12 9.29 28.12 10.06L28.12 10.06L28.12 10.06Q28.12 12.41 29.84 12.41L29.84 12.41L29.84 12.41Q30.66 12.41 31.31 11.88L31.31 11.88L31.31 11.88Q31.96 11.35 32.34 10.40L32.34 10.40L32.34 10.40Q32.57 9.91 32.70 9.28L32.70 9.28L30.95 9.28ZM37.40 13.94L37.40 13.94Q36.83 13.94 36.40 13.68L36.40 13.68L36.40 13.68Q35.98 13.43 35.76 12.95L35.76 12.95L35.76 12.95Q35.53 12.48 35.53 11.84L35.53 11.84L35.53 11.84Q35.53 11.48 35.59 11.12L35.59 11.12L36.56 5.63L38.21 5.63L37.26 11.07L37.26 11.07Q37.19 11.41 37.19 11.68L37.19 11.68L37.19 11.68Q37.19 12.58 37.99 12.58L37.99 12.58L37.99 12.58Q38.47 12.58 38.88 12.31L38.88 12.31L38.88 12.31Q39.29 12.04 39.57 11.57L39.57 11.57L39.57 11.57Q39.85 11.09 39.96 10.47L39.96 10.47L40.81 5.63L42.47 5.63L41.04 13.78L39.46 13.78L39.64 12.56L39.56 12.56L39.56 12.56Q39.14 13.25 38.61 13.59L38.61 13.59L38.61 13.59Q38.08 13.94 37.40 13.94L37.40 13.94ZM47.97 5.63L49.72 5.63L46.18 13.84L46.18 13.84Q45.53 15.35 44.79 16.01L44.79 16.01L44.79 16.01Q44.05 16.67 43.16 16.67L43.16 16.67L43.16 16.67Q42.78 16.67 42.49 16.61L42.49 16.61L42.49 16.61Q42.20 16.55 41.89 16.43L41.89 16.43L42.33 15.35L42.33 15.35Q42.49 15.41 42.64 15.43L42.64 15.43L42.64 15.43Q42.79 15.44 43.03 15.44L43.03 15.44L43.03 15.44Q43.62 15.44 44.03 15.01L44.03 15.01L44.03 15.01Q44.43 14.57 44.73 13.78L44.73 13.78L44.12 13.78L43.47 5.63L45.19 5.63L45.32 9.65L45.37 12.50L46.42 9.64L47.97 5.63ZM49.73 13.94L49.73 13.94Q49.50 13.94 49.15 13.89L49.15 13.89L49.15 13.89Q48.80 13.84 48.57 13.76L48.57 13.76L48.72 12.35L48.72 12.35Q48.96 12.43 49.14 12.46L49.14 12.46L49.14 12.46Q49.31 12.49 49.51 12.49L49.51 12.49L49.51 12.49Q50.26 12.49 50.71 12.00L50.71 12.00L50.71 12.00Q51.15 11.51 51.33 10.51L51.33 10.51L52.69 2.80L54.41 2.80L53.03 10.69L53.03 10.69Q52.73 12.37 51.93 13.15L51.93 13.15L51.93 13.15Q51.13 13.94 49.73 13.94L49.73 13.94ZM58.15 5.48L58.15 5.48Q59.32 5.48 59.99 6.01L59.99 6.01L59.99 6.01Q60.66 6.54 60.66 7.56L60.66 7.56L60.66 7.56Q60.66 7.88 60.61 8.18L60.61 8.18L59.62 13.78L58.19 13.78L58.34 12.56L58.24 12.56L58.24 12.56Q57.96 13.04 57.57 13.36L57.57 13.36L57.57 13.36Q57.18 13.67 56.77 13.82L56.77 13.82L56.77 13.82Q56.36 13.96 56 13.96L56 13.96L56 13.96Q55.43 13.96 55.01 13.75L55.01 13.75L55.01 13.75Q54.58 13.54 54.36 13.16L54.36 13.16L54.36 13.16Q54.14 12.77 54.14 12.26L54.14 12.26L54.14 12.26Q54.14 12.04 54.18 11.81L54.18 11.81L54.18 11.81Q54.31 11.06 54.71 10.51L54.71 10.51L54.71 10.51Q55.10 9.97 55.79 9.53L55.79 9.53L55.79 9.53Q57.04 8.76 58.99 8.48L58.99 8.48L59.06 8.17L59.06 8.17Q59.13 7.83 59.13 7.59L59.13 7.59L59.13 7.59Q59.13 7.15 58.89 6.96L58.89 6.96L58.89 6.96Q58.65 6.76 58.15 6.76L58.15 6.76L58.15 6.76Q56.96 6.76 56.23 8.02L56.23 8.02L55.07 7.31L55.07 7.31Q55.59 6.37 56.38 5.92L56.38 5.92L56.38 5.92Q57.16 5.48 58.15 5.48L58.15 5.48ZM56.50 12.67L56.50 12.67Q57.07 12.67 57.58 12.28L57.58 12.28L57.58 12.28Q58.08 11.90 58.49 11.30L58.49 11.30L58.78 9.67L58.78 9.67Q58.21 9.74 57.70 9.92L57.70 9.92L57.70 9.92Q57.18 10.10 56.79 10.37L56.79 10.37L56.79 10.37Q56.39 10.62 56.13 10.98L56.13 10.98L56.13 10.98Q55.86 11.34 55.79 11.76L55.79 11.76L55.79 11.76Q55.77 11.87 55.77 11.97L55.77 11.97L55.77 11.97Q55.77 12.30 55.97 12.48L55.97 12.48L55.97 12.48Q56.17 12.67 56.50 12.67L56.50 12.67ZM64.03 13.96L64.03 13.96Q62.69 13.96 62.05 13.12L62.05 13.12L62.05 13.12Q61.41 12.28 61.41 10.88L61.41 10.88L61.41 10.88Q61.41 10.29 61.53 9.61L61.53 9.61L61.53 9.61Q61.74 8.44 62.22 7.51L62.22 7.51L62.22 7.51Q62.70 6.58 63.48 6.03L63.48 6.03L63.48 6.03Q64.26 5.48 65.32 5.48L65.32 5.48L65.32 5.48Q66.53 5.48 67.13 6.11L67.13 6.11L67.13 6.11Q67.73 6.74 67.83 7.96L67.83 7.96L66.41 8.24L66.41 8.24Q66.42 7.49 66.17 7.13L66.17 7.13L66.17 7.13Q65.93 6.77 65.36 6.77L65.36 6.77L65.36 6.77Q64.45 6.77 63.91 7.65L63.91 7.65L63.91 7.65Q63.37 8.52 63.13 9.85L63.13 9.85L63.13 9.85Q63.01 10.54 63.01 11.07L63.01 11.07L63.01 11.07Q63.01 12.64 64.13 12.64L64.13 12.64L64.13 12.64Q64.76 12.64 65.20 12.23L65.20 12.23L65.20 12.23Q65.64 11.81 65.90 11.08L65.90 11.08L67.16 11.53L67.16 11.53Q66.67 12.78 65.92 13.37L65.92 13.37L65.92 13.37Q65.17 13.96 64.03 13.96L64.03 13.96ZM75.39 5.63L72.65 8.39L74.15 13.78L72.37 13.78L71.37 9.59L70.16 10.62L69.58 13.78L67.92 13.78L69.86 2.80L71.52 2.80L70.41 8.96L73.50 5.63L75.39 5.63ZM75.41 13.78L75.77 11.76L77.81 11.76L77.46 13.78L75.41 13.78ZM82.35 13.96L82.35 13.96Q81.02 13.96 80.38 13.12L80.38 13.12L80.38 13.12Q79.74 12.28 79.74 10.88L79.74 10.88L79.74 10.88Q79.74 10.29 79.86 9.61L79.86 9.61L79.86 9.61Q80.06 8.44 80.54 7.51L80.54 7.51L80.54 7.51Q81.03 6.58 81.81 6.03L81.81 6.03L81.81 6.03Q82.59 5.48 83.64 5.48L83.64 5.48L83.64 5.48Q84.86 5.48 85.46 6.11L85.46 6.11L85.46 6.11Q86.06 6.74 86.15 7.96L86.15 7.96L84.74 8.24L84.74 8.24Q84.75 7.49 84.50 7.13L84.50 7.13L84.50 7.13Q84.25 6.77 83.69 6.77L83.69 6.77L83.69 6.77Q82.78 6.77 82.24 7.65L82.24 7.65L82.24 7.65Q81.70 8.52 81.46 9.85L81.46 9.85L81.46 9.85Q81.33 10.54 81.33 11.07L81.33 11.07L81.33 11.07Q81.33 12.64 82.46 12.64L82.46 12.64L82.46 12.64Q83.09 12.64 83.53 12.23L83.53 12.23L83.53 12.23Q83.97 11.81 84.23 11.08L84.23 11.08L85.48 11.53L85.48 11.53Q85.00 12.78 84.25 13.37L84.25 13.37L84.25 13.37Q83.49 13.96 82.35 13.96L82.35 13.96ZM89.06 13.96L89.06 13.96Q87.78 13.96 87.07 13.21L87.07 13.21L87.07 13.21Q86.35 12.46 86.35 10.96L86.35 10.96L86.35 10.96Q86.35 10.34 86.48 9.62L86.48 9.62L86.48 9.62Q86.85 7.53 87.86 6.50L87.86 6.50L87.86 6.50Q88.87 5.48 90.35 5.48L90.35 5.48L90.35 5.48Q91.63 5.48 92.34 6.22L92.34 6.22L92.34 6.22Q93.06 6.97 93.06 8.47L93.06 8.47L93.06 8.47Q93.06 9.07 92.92 9.85L92.92 9.85L92.92 9.85Q92.56 11.92 91.54 12.94L91.54 12.94L91.54 12.94Q90.53 13.96 89.06 13.96L89.06 13.96ZM89.08 12.63L89.08 12.63Q89.93 12.63 90.51 11.92L90.51 11.92L90.51 11.92Q91.09 11.22 91.37 9.61L91.37 9.61L91.37 9.61Q91.50 8.87 91.50 8.33L91.50 8.33L91.50 8.33Q91.50 7.50 91.20 7.15L91.20 7.15L91.20 7.15Q90.90 6.79 90.31 6.79L90.31 6.79L90.31 6.79Q89.49 6.79 88.92 7.50L88.92 7.50L88.92 7.50Q88.34 8.20 88.05 9.84L88.05 9.84L88.05 9.84Q87.92 10.56 87.92 11.09L87.92 11.09L87.92 11.09Q87.92 11.92 88.21 12.27L88.21 12.27L88.21 12.27Q88.51 12.63 89.08 12.63L89.08 12.63ZM93.89 13.78L94.25 11.76L96.29 11.76L95.94 13.78L93.89 13.78ZM100.23 13.94L100.23 13.94Q99.65 13.94 99.23 13.68L99.23 13.68L99.23 13.68Q98.81 13.43 98.58 12.95L98.58 12.95L98.58 12.95Q98.36 12.48 98.36 11.84L98.36 11.84L98.36 11.84Q98.36 11.48 98.42 11.12L98.42 11.12L99.39 5.63L101.04 5.63L100.08 11.07L100.08 11.07Q100.02 11.41 100.02 11.68L100.02 11.68L100.02 11.68Q100.02 12.58 100.82 12.58L100.82 12.58L100.82 12.58Q101.30 12.58 101.71 12.31L101.71 12.31L101.71 12.31Q102.12 12.04 102.40 11.57L102.40 11.57L102.40 11.57Q102.68 11.09 102.79 10.47L102.79 10.47L103.64 5.63L105.30 5.63L103.87 13.78L102.29 13.78L102.47 12.56L102.39 12.56L102.39 12.56Q101.96 13.25 101.44 13.59L101.44 13.59L101.44 13.59Q100.91 13.94 100.23 13.94L100.23 13.94ZM113.18 5.63L110.43 8.39L111.94 13.78L110.15 13.78L109.16 9.59L107.95 10.62L107.37 13.78L105.71 13.78L107.65 2.80L109.31 2.80L108.20 8.96L111.29 5.63L113.18 5.63Z"></path></g><!----><g data-v-423bf9ae="" id="30c2bc41-43f8-4bd5-9b4c-5fea6268e1f6" transform="matrix(1.7999999523162842,0,0,1.7999999523162842,194.10000610351562,0.0000011920928955078125)" stroke="none" fill="black"><path d="M47 22H4V10h43v12zM7 19h37v-6H7v6z"></path><circle cx="13.846" cy="15.798" r="2.112"></circle><circle cx="20.533" cy="15.798" r="2.111"></circle><path d="M33 14h3v4h-3z"></path><g><path d="M47 36H4V23h43v13zM7 33h37v-7H7v7z"></path><circle cx="13.846" cy="29.498" r="2.112"></circle><circle cx="20.533" cy="29.498" r="2.111"></circle><path d="M33 28h3v4h-3z"></path></g><g><path d="M47 50H4V37h43v13zM7 47h37v-7H7v7z"></path><circle cx="13.846" cy="43.2" r="2.112"></circle><circle cx="20.533" cy="43.2" r="2.111"></circle><path d="M33 42h3v3h-3z"></path></g><path d="M46.186 8H4.714l9.633-8h22.204z"></path></g><!----></svg>