<svg data-v-423bf9ae="" xmlns="http://www.w3.org/2000/svg" viewBox="0 0 551.0671439935605 163" class="iconAbove"><!----><!----><!----><g data-v-423bf9ae="" id="722a696a-6bcb-46ec-90ee-b62c35d406e6" fill="black" transform="matrix(4.240282514041758,0,0,4.240282514041758,-4.62191467658954,91.84805507229689)"><path d="M1.80 13.78L3.48 4.29L1.09 4.29L1.35 2.80L7.83 2.80L7.57 4.29L5.19 4.29L3.51 13.78L1.80 13.78ZM11.93 9.28L12.16 7.97L15.52 7.97L14.50 13.78L13.14 13.78L13.39 12.07L13.39 12.07Q13.16 12.60 12.74 13.03L12.74 13.03L12.74 13.03Q12.31 13.45 11.75 13.70L11.75 13.70L11.75 13.70Q11.20 13.94 10.58 13.94L10.58 13.94L10.58 13.94Q8.97 13.94 8.20 12.91L8.20 12.91L8.20 12.91Q7.44 11.88 7.44 10.09L7.44 10.09L7.44 10.09Q7.44 9.17 7.62 8.13L7.62 8.13L7.62 8.13Q7.90 6.54 8.52 5.30L8.52 5.30L8.52 5.30Q9.13 4.07 10.14 3.35L10.14 3.35L10.14 3.35Q11.16 2.63 12.55 2.63L12.55 2.63L12.55 2.63Q14.23 2.63 15.04 3.46L15.04 3.46L15.04 3.46Q15.85 4.29 15.91 5.74L15.91 5.74L14.40 6.03L14.40 6.03Q14.36 5.37 14.18 4.95L14.18 4.95L14.18 4.95Q13.99 4.53 13.60 4.31L13.60 4.31L13.60 4.31Q13.21 4.10 12.56 4.10L12.56 4.10L12.56 4.10Q10.03 4.10 9.28 8.35L9.28 8.35L9.28 8.35Q9.11 9.29 9.11 10.06L9.11 10.06L9.11 10.06Q9.11 12.41 10.82 12.41L10.82 12.41L10.82 12.41Q11.64 12.41 12.29 11.88L12.29 11.88L12.29 11.88Q12.95 11.35 13.32 10.40L13.32 10.40L13.32 10.40Q13.55 9.91 13.68 9.28L13.68 9.28L11.93 9.28ZM16.71 13.94L16.71 13.94Q16.48 13.94 16.13 13.89L16.13 13.89L16.13 13.89Q15.78 13.84 15.55 13.76L15.55 13.76L15.70 12.35L15.70 12.35Q15.94 12.43 16.12 12.46L16.12 12.46L16.12 12.46Q16.30 12.49 16.49 12.49L16.49 12.49L16.49 12.49Q17.25 12.49 17.69 12.00L17.69 12.00L17.69 12.00Q18.14 11.51 18.31 10.51L18.31 10.51L19.67 2.80L21.40 2.80L20.01 10.69L20.01 10.69Q19.71 12.37 18.91 13.15L18.91 13.15L18.91 13.15Q18.11 13.94 16.71 13.94L16.71 13.94ZM25.13 9.50L25.35 8.21L31.72 8.21L31.49 9.50L25.13 9.50ZM35.77 13.78L37.70 2.80L39.40 2.80L37.46 13.78L35.77 13.78ZM41.14 13.78L42.81 4.29L40.42 4.29L40.68 2.80L47.17 2.80L46.91 4.29L44.52 4.29L42.85 13.78L41.14 13.78ZM58.26 8.09L58.26 8.09Q56.89 10.21 55.92 11.44L55.92 11.44L56.34 12.11L56.34 12.11Q56.53 12.42 56.79 12.83L56.79 12.83L56.79 12.83Q57.05 13.25 57.38 13.78L57.38 13.78L55.56 13.78L55.56 13.78Q55.23 13.23 54.87 12.64L54.87 12.64L54.87 12.64Q54.11 13.38 53.44 13.69L53.44 13.69L53.44 13.69Q52.76 13.99 51.99 13.99L51.99 13.99L51.99 13.99Q51.21 13.99 50.63 13.69L50.63 13.69L50.63 13.69Q50.05 13.38 49.73 12.83L49.73 12.83L49.73 12.83Q49.41 12.28 49.41 11.55L49.41 11.55L49.41 11.55Q49.41 11.35 49.44 11.07L49.44 11.07L49.44 11.07Q49.57 10.01 50.25 9.15L50.25 9.15L50.25 9.15Q50.92 8.29 52.02 7.77L52.02 7.77L52.02 7.77Q51.70 7.12 51.56 6.65L51.56 6.65L51.56 6.65Q51.43 6.18 51.43 5.72L51.43 5.72L51.43 5.72Q51.43 5.48 51.45 5.28L51.45 5.28L51.45 5.28Q51.53 4.53 51.91 3.93L51.91 3.93L51.91 3.93Q52.29 3.34 52.91 3.01L52.91 3.01L52.91 3.01Q53.54 2.68 54.34 2.68L54.34 2.68L54.34 2.68Q55.02 2.68 55.51 2.93L55.51 2.93L55.51 2.93Q56 3.18 56.26 3.64L56.26 3.64L56.26 3.64Q56.51 4.09 56.51 4.71L56.51 4.71L56.51 4.71Q56.51 4.83 56.49 5.09L56.49 5.09L56.49 5.09Q56.38 6.04 55.76 6.84L55.76 6.84L55.76 6.84Q55.15 7.64 54.00 8.26L54.00 8.26L54.00 8.26Q54.42 9.00 55.18 10.23L55.18 10.23L55.18 10.23Q55.85 9.31 56.66 7.98L56.66 7.98L58.26 8.09ZM52.99 5.28L52.99 5.28Q52.97 5.43 52.97 5.50L52.97 5.50L52.97 5.50Q52.97 6.15 53.40 7.10L53.40 7.10L53.40 7.10Q54.09 6.67 54.48 6.17L54.48 6.17L54.48 6.17Q54.86 5.67 54.96 5.08L54.96 5.08L54.96 5.08Q54.99 4.94 54.99 4.77L54.99 4.77L54.99 4.77Q54.99 4.40 54.80 4.19L54.80 4.19L54.80 4.19Q54.61 3.98 54.24 3.98L54.24 3.98L54.24 3.98Q53.74 3.98 53.40 4.34L53.40 4.34L53.40 4.34Q53.07 4.70 52.99 5.28L52.99 5.28ZM52.17 12.61L52.17 12.61Q52.64 12.61 53.11 12.36L53.11 12.36L53.11 12.36Q53.59 12.11 54.17 11.48L54.17 11.48L54.17 11.48Q53.04 9.63 52.58 8.82L52.58 8.82L52.58 8.82Q51.96 9.24 51.58 9.77L51.58 9.77L51.58 9.77Q51.20 10.31 51.10 11.01L51.10 11.01L51.10 11.01Q51.07 11.23 51.07 11.33L51.07 11.33L51.07 11.33Q51.07 11.70 51.21 11.99L51.21 11.99L51.21 11.99Q51.36 12.28 51.61 12.44L51.61 12.44L51.61 12.44Q51.86 12.61 52.17 12.61L52.17 12.61ZM62.00 13.78L63.93 2.80L66.30 2.80L68.24 12.16L68.25 12.16L68.56 9.82L69.79 2.80L71.45 2.80L69.51 13.78L67.12 13.78L65.21 4.40L65.20 4.40L64.92 6.54L63.65 13.78L62.00 13.78ZM75.59 5.48L75.59 5.48Q76.94 5.48 77.52 6.22L77.52 6.22L77.52 6.22Q78.09 6.97 78.09 8.21L78.09 8.21L78.09 8.21Q78.09 8.80 77.97 9.53L77.97 9.53L77.97 9.53Q77.90 9.91 77.81 10.22L77.81 10.22L73.32 10.22L73.32 10.22Q73.26 10.58 73.26 10.90L73.26 10.90L73.26 10.90Q73.26 11.67 73.60 12.12L73.60 12.12L73.60 12.12Q73.94 12.57 74.60 12.57L74.60 12.57L74.60 12.57Q75.07 12.57 75.50 12.35L75.50 12.35L75.50 12.35Q75.93 12.13 76.30 11.72L76.30 11.72L77.33 12.41L77.33 12.41Q76.74 13.27 76.04 13.61L76.04 13.61L76.04 13.61Q75.33 13.95 74.50 13.95L74.50 13.95L74.50 13.95Q73.60 13.95 72.97 13.55L72.97 13.55L72.97 13.55Q72.34 13.15 72.02 12.42L72.02 12.42L72.02 12.42Q71.70 11.70 71.70 10.75L71.70 10.75L71.70 10.75Q71.70 10.21 71.80 9.61L71.80 9.61L71.80 9.61Q72.02 8.42 72.49 7.50L72.49 7.50L72.49 7.50Q72.96 6.57 73.74 6.02L73.74 6.02L73.74 6.02Q74.52 5.48 75.59 5.48L75.59 5.48ZM75.59 6.80L75.59 6.80Q74.75 6.80 74.26 7.43L74.26 7.43L74.26 7.43Q73.76 8.07 73.54 9.04L73.54 9.04L76.64 9.04L76.64 9.04Q76.73 8.45 76.73 8.06L76.73 8.06L76.73 8.06Q76.73 7.44 76.47 7.12L76.47 7.12L76.47 7.12Q76.21 6.80 75.59 6.80L75.59 6.80ZM80.66 13.78L80.66 13.78Q79.83 13.78 79.43 13.39L79.43 13.39L79.43 13.39Q79.04 13.00 79.04 12.22L79.04 12.22L79.04 12.22Q79.04 11.83 79.11 11.43L79.11 11.43L79.93 6.79L79.01 6.79L79.21 5.63L80.22 5.63L80.86 3.76L82.11 3.76L81.79 5.63L83.38 5.63L83.17 6.79L81.58 6.79L80.81 11.16L80.81 11.16Q80.74 11.60 80.74 11.85L80.74 11.85L80.74 11.85Q80.74 12.20 80.91 12.33L80.91 12.33L80.91 12.33Q81.07 12.46 81.48 12.46L81.48 12.46L82.09 12.46L81.85 13.78L80.66 13.78ZM91.79 5.63L93.52 5.63L90.59 13.78L88.45 13.78L88.33 7.74L88.27 7.74L86.02 13.80L83.89 13.80L83.85 5.63L85.54 5.63L85.24 12.41L87.95 5.63L89.37 5.63L89.67 12.44L91.79 5.63ZM96.04 13.96L96.04 13.96Q94.77 13.96 94.05 13.21L94.05 13.21L94.05 13.21Q93.34 12.46 93.34 10.96L93.34 10.96L93.34 10.96Q93.34 10.34 93.47 9.62L93.47 9.62L93.47 9.62Q93.84 7.53 94.85 6.50L94.85 6.50L94.85 6.50Q95.86 5.48 97.34 5.48L97.34 5.48L97.34 5.48Q98.62 5.48 99.33 6.22L99.33 6.22L99.33 6.22Q100.04 6.97 100.04 8.47L100.04 8.47L100.04 8.47Q100.04 9.07 99.91 9.85L99.91 9.85L99.91 9.85Q99.54 11.92 98.53 12.94L98.53 12.94L98.53 12.94Q97.51 13.96 96.04 13.96L96.04 13.96ZM96.07 12.63L96.07 12.63Q96.91 12.63 97.49 11.92L97.49 11.92L97.49 11.92Q98.08 11.22 98.36 9.61L98.36 9.61L98.36 9.61Q98.49 8.87 98.49 8.33L98.49 8.33L98.49 8.33Q98.49 7.50 98.18 7.15L98.18 7.15L98.18 7.15Q97.88 6.79 97.30 6.79L97.30 6.79L97.30 6.79Q96.48 6.79 95.90 7.50L95.90 7.50L95.90 7.50Q95.33 8.20 95.03 9.84L95.03 9.84L95.03 9.84Q94.90 10.56 94.90 11.09L94.90 11.09L94.90 11.09Q94.90 11.92 95.20 12.27L95.20 12.27L95.20 12.27Q95.50 12.63 96.07 12.63L96.07 12.63ZM100.55 13.78L101.99 5.63L103.47 5.63L103.28 6.90L103.36 6.90L103.36 6.90Q104.04 5.50 105.08 5.50L105.08 5.50L105.08 5.50Q105.50 5.50 105.90 5.64L105.90 5.64L105.62 7.17L105.62 7.17Q105.38 7.10 105.14 7.10L105.14 7.10L105.04 7.10L105.04 7.10Q104.25 7.15 103.70 7.81L103.70 7.81L103.70 7.81Q103.15 8.46 102.94 9.67L102.94 9.67L102.22 13.78L100.55 13.78ZM112.82 5.63L110.07 8.39L111.58 13.78L109.79 13.78L108.79 9.59L107.58 10.62L107.01 13.78L105.35 13.78L107.28 2.80L108.94 2.80L107.84 8.96L110.93 5.63L112.82 5.63ZM114.17 4.44L114.46 2.80L116.12 2.80L115.83 4.44L114.17 4.44ZM112.51 13.78L113.95 5.63L115.62 5.63L114.19 13.78L112.51 13.78ZM116.01 13.78L117.45 5.63L119.03 5.63L118.84 6.85L118.93 6.85L118.93 6.85Q119.34 6.18 119.88 5.83L119.88 5.83L119.88 5.83Q120.41 5.48 121.06 5.48L121.06 5.48L121.06 5.48Q121.65 5.48 122.08 5.73L122.08 5.73L122.08 5.73Q122.51 5.99 122.74 6.46L122.74 6.46L122.74 6.46Q122.96 6.93 122.96 7.57L122.96 7.57L122.96 7.57Q122.96 7.93 122.90 8.29L122.90 8.29L121.93 13.78L120.27 13.78L121.24 8.35L121.24 8.35Q121.30 8.00 121.30 7.74L121.30 7.74L121.30 7.74Q121.30 7.25 121.09 7.04L121.09 7.04L121.09 7.04Q120.88 6.84 120.46 6.84L120.46 6.84L120.46 6.84Q120.00 6.84 119.60 7.10L119.60 7.10L119.60 7.10Q119.21 7.37 118.92 7.85L118.92 7.85L118.92 7.85Q118.64 8.33 118.54 8.95L118.54 8.95L117.68 13.78L116.01 13.78ZM129.54 5.63L131.05 5.63L129.71 13.26L129.71 13.26Q129.38 15.11 128.34 15.94L128.34 15.94L128.34 15.94Q127.31 16.78 125.87 16.78L125.87 16.78L125.87 16.78Q125.29 16.78 124.73 16.60L124.73 16.60L124.73 16.60Q124.17 16.43 123.72 16.06L123.72 16.06L123.72 16.06Q123.28 15.70 123.05 15.16L123.05 15.16L124.04 14.35L124.04 14.35Q124.33 14.98 124.81 15.24L124.81 15.24L124.81 15.24Q125.30 15.49 125.86 15.49L125.86 15.49L125.86 15.49Q126.68 15.49 127.29 14.92L127.29 14.92L127.29 14.92Q127.89 14.36 128.09 13.21L128.09 13.21L128.21 12.48L128.21 12.48Q127.80 13.02 127.27 13.32L127.27 13.32L127.27 13.32Q126.75 13.62 126.03 13.62L126.03 13.62L126.03 13.62Q125.30 13.62 124.78 13.25L124.78 13.25L124.78 13.25Q124.26 12.89 124.00 12.22L124.00 12.22L124.00 12.22Q123.74 11.55 123.74 10.65L123.74 10.65L123.74 10.65Q123.74 10.08 123.85 9.41L123.85 9.41L123.85 9.41Q124.05 8.26 124.54 7.38L124.54 7.38L124.54 7.38Q125.02 6.49 125.74 5.98L125.74 5.98L125.74 5.98Q126.46 5.48 127.34 5.48L127.34 5.48L127.34 5.48Q128.03 5.48 128.52 5.77L128.52 5.77L128.52 5.77Q129.00 6.07 129.20 6.66L129.20 6.66L129.32 6.66L129.54 5.63ZM128.89 9.54L128.89 9.54Q128.99 9.00 128.99 8.54L128.99 8.54L128.99 8.54Q128.99 7.76 128.69 7.30L128.69 7.30L128.69 7.30Q128.39 6.84 127.76 6.84L127.76 6.84L127.76 6.84Q126.88 6.84 126.29 7.63L126.29 7.63L126.29 7.63Q125.71 8.42 125.49 9.68L125.49 9.68L125.49 9.68Q125.39 10.21 125.39 10.64L125.39 10.64L125.39 10.64Q125.39 11.41 125.70 11.84L125.70 11.84L125.70 11.84Q126 12.28 126.64 12.28L126.64 12.28L126.64 12.28Q127.52 12.28 128.10 11.54L128.10 11.54L128.10 11.54Q128.67 10.79 128.89 9.54L128.89 9.54Z"></path></g><!----><g data-v-423bf9ae="" id="0250f34c-8af9-45e4-aed3-a2836626c385" transform="matrix(1.8,0,0,1.8,230.1,0)" stroke="none" fill="black"><path d="M47 22H4V10h43v12zM7 19h37v-6H7v6z"></path><circle cx="13.846" cy="15.798" r="2.112"></circle><circle cx="20.533" cy="15.798" r="2.111"></circle><path d="M33 14h3v4h-3z"></path><g><path d="M47 36H4V23h43v13zM7 33h37v-7H7v7z"></path><circle cx="13.846" cy="29.498" r="2.112"></circle><circle cx="20.533" cy="29.498" r="2.111"></circle><path d="M33 28h3v4h-3z"></path></g><g><path d="M47 50H4V37h43v13zM7 47h37v-7H7v7z"></path><circle cx="13.846" cy="43.2" r="2.112"></circle><circle cx="20.533" cy="43.2" r="2.111"></circle><path d="M33 42h3v3h-3z"></path></g><path d="M46.186 8H4.714l9.633-8h22.204z"></path></g><!----></svg>